<svg width="459" height="382" viewBox="0 0 459 382" xmlns="http://www.w3.org/2000/svg"><title>Illustration</title><g fill="none" fill-rule="evenodd"><path d="M278.024 363.795c-1.02.16-2.04.311-3.061.451l3.06-.45z" stroke="#969695" stroke-width="2"/><path d="M268.78 364.974a159.511 159.511 0 0 1-50.12-3.01c-20.19-4.481-39.835-12.988-57.741-25.722-17.907-12.734-32.382-28.488-43.225-46.074-10.842-17.587-18.052-37.005-21.429-57.067-3.378-20.061-2.922-40.766 1.565-60.926 4.064-18.253 11.433-36.058 22.257-52.534" stroke="#969695" stroke-width="2" stroke-dasharray="12.072,12.072"/><path d="M121.82 117.057a158.73 158.73 0 0 1 1.772-2.534" stroke="#969695" stroke-width="2"/><path fill="#969695" d="M272.045 358.24l-.884 1.269 6.27 4.339-4.793 5.927 1.206.97 5.836-7.22z"/><path d="M231.13 46.078c1.02-.16 2.04-.31 3.062-.45" stroke="#969695" stroke-width="2"/><path d="M240.375 44.9a159.527 159.527 0 0 1 50.12 3.01c20.19 4.48 39.834 12.988 57.74 25.721 17.908 12.734 32.383 28.488 43.225 46.075 10.842 17.586 18.053 37.004 21.43 57.066 3.377 20.061 2.922 40.766-1.566 60.926-4.063 18.253-11.433 36.059-22.257 52.534" stroke="#969695" stroke-width="2" stroke-dasharray="12.072,12.072"/><path d="M387.334 292.817c-.58.848-1.171 1.693-1.771 2.533" stroke="#969695" stroke-width="2"/><path fill="#969695" d="M237.11 51.634l.883-1.27-6.27-4.338 4.793-5.927-1.205-.97-5.836 7.219z"/><path stroke="#969695" stroke-width="2" fill="#FFF" d="M1.378 277.493h262.025v-143.67H1.378z"/><path d="M14.721 153.738h4.409" fill="#FFF"/><path d="M14.721 153.738h4.409" stroke="#969695" stroke-width="2"/><path d="M30.15 165.285h26.448" fill="#FFF"/><path d="M30.15 165.285h26.448" stroke="#969695" stroke-width="2"/><path d="M30.15 211.474h26.448" fill="#FFF"/><path d="M30.15 211.474h26.448" stroke="#969695" stroke-width="2"/><path d="M14.721 165.285h4.409" fill="#FFF"/><path d="M14.721 165.285h4.409" stroke="#969695" stroke-width="2"/><path d="M14.721 176.832h4.409" fill="#FFF"/><path d="M14.721 176.832h4.409" stroke="#969695" stroke-width="2"/><path d="M14.721 188.38h4.409" fill="#FFF"/><path d="M14.721 188.38h4.409" stroke="#969695" stroke-width="2"/><path d="M14.721 199.927h4.409" fill="#FFF"/><path d="M14.721 199.927h4.409" stroke="#969695" stroke-width="2"/><path d="M14.721 211.474h4.409" fill="#FFF"/><path d="M14.721 211.474h4.409" stroke="#969695" stroke-width="2"/><path d="M14.721 223.021h4.409" fill="#FFF"/><path d="M14.721 223.021h4.409" stroke="#969695" stroke-width="2"/><path d="M14.721 234.568h4.409" fill="#FFF"/><path d="M14.721 234.568h4.409" stroke="#969695" stroke-width="2"/><path d="M14.721 246.115h4.409" fill="#FFF"/><path d="M14.721 246.115h4.409" stroke="#969695" stroke-width="2"/><path d="M14.721 257.662h4.409" fill="#FFF"/><path d="M14.721 257.662h4.409" stroke="#969695" stroke-width="2"/><path d="M30.15 153.738h63.183" fill="#FFF"/><path d="M30.15 153.738h63.183" stroke="#969695" stroke-width="2"/><path d="M138.883 153.738h63.182" fill="#FFF"/><path d="M138.883 153.738h63.182" stroke="#969695" stroke-width="2"/><path d="M122.72 165.285h44.08" fill="#FFF"/><path d="M122.72 165.285h44.08" stroke="#969695" stroke-width="2"/><path d="M62.475 165.285h26.45" fill="#FFF"/><path d="M62.475 165.285h26.45" stroke="#969695" stroke-width="2"/><path d="M94.801 165.285h22.04" fill="#FFF"/><path d="M94.801 165.285h22.04" stroke="#969695" stroke-width="2"/><path d="M99.21 153.738h17.632" fill="#FFF"/><path d="M99.21 153.738h17.632" stroke="#969695" stroke-width="2"/><path d="M121.25 153.738h13.225" fill="#FFF"/><path d="M121.25 153.738h13.225" stroke="#969695" stroke-width="2"/><path d="M171.208 165.285h13.225" fill="#FFF"/><path d="M171.208 165.285h13.225" stroke="#969695" stroke-width="2"/><path d="M188.841 165.285h13.224" fill="#FFF"/><path d="M188.841 165.285h13.224" stroke="#969695" stroke-width="2"/><path d="M44.843 176.832h63.183" fill="#FFF"/><path d="M44.843 176.832h63.183" stroke="#969695" stroke-width="2"/><path d="M153.576 176.832h48.489" fill="#FFF"/><path d="M153.576 176.832h48.489" stroke="#969695" stroke-width="2"/><path d="M137.413 188.38h44.081" fill="#FFF"/><path d="M137.413 188.38h44.081" stroke="#969695" stroke-width="2"/><path d="M44.843 188.38h26.449" fill="#FFF"/><path d="M44.843 188.38h26.449" stroke="#969695" stroke-width="2"/><path d="M77.17 188.38h26.448" fill="#FFF"/><path d="M77.17 188.38h26.448" stroke="#969695" stroke-width="2"/><path d="M109.495 188.38h22.04" fill="#FFF"/><path d="M109.495 188.38h22.04" stroke="#969695" stroke-width="2"/><path d="M113.903 176.832h17.632" fill="#FFF"/><path d="M113.903 176.832h17.632" stroke="#969695" stroke-width="2"/><path d="M135.944 176.832h13.224" fill="#FFF"/><path d="M135.944 176.832h13.224" stroke="#969695" stroke-width="2"/><path d="M44.843 199.927h57.783" fill="#FFF"/><path d="M44.843 199.927h57.783" stroke="#969695" stroke-width="2"/><path d="M144.283 199.927h57.782" fill="#FFF"/><path d="M144.283 199.927h57.782" stroke="#969695" stroke-width="2"/><path d="M122.72 211.474h44.08" fill="#FFF"/><path d="M122.72 211.474h44.08" stroke="#969695" stroke-width="2"/><path d="M62.475 211.474h26.45" fill="#FFF"/><path d="M62.475 211.474h26.45" stroke="#969695" stroke-width="2"/><path d="M94.801 211.474h22.04" fill="#FFF"/><path d="M94.801 211.474h22.04" stroke="#969695" stroke-width="2"/><path d="M108 199.927h16.126" fill="#FFF"/><path d="M108 199.927h16.126" stroke="#969695" stroke-width="2"/><path d="M128.157 199.927h12.094" fill="#FFF"/><path d="M128.157 199.927h12.094" stroke="#969695" stroke-width="2"/><path d="M171.208 211.474h13.225" fill="#FFF"/><path d="M171.208 211.474h13.225" stroke="#969695" stroke-width="2"/><path d="M188.841 211.474h13.224" fill="#FFF"/><path d="M188.841 211.474h13.224" stroke="#969695" stroke-width="2"/><path d="M44.843 223.021h57.783" fill="#FFF"/><path d="M44.843 223.021h57.783" stroke="#969695" stroke-width="2"/><path d="M144.283 223.021h57.782" fill="#FFF"/><path d="M144.283 223.021h57.782" stroke="#969695" stroke-width="2"/><path d="M129.501 234.568h40.314" fill="#FFF"/><path d="M129.501 234.568h40.314" stroke="#969695" stroke-width="2"/><path d="M44.843 234.568h24.188" fill="#FFF"/><path d="M44.843 234.568h24.188" stroke="#969695" stroke-width="2"/><path d="M74.406 234.568h24.188" fill="#FFF"/><path d="M74.406 234.568h24.188" stroke="#969695" stroke-width="2"/><path d="M103.97 234.568h20.156" fill="#FFF"/><path d="M103.97 234.568h20.156" stroke="#969695" stroke-width="2"/><path d="M108 223.021h16.126" fill="#FFF"/><path d="M108 223.021h16.126" stroke="#969695" stroke-width="2"/><path d="M128.157 223.021h12.094" fill="#FFF"/><path d="M128.157 223.021h12.094" stroke="#969695" stroke-width="2"/><path d="M173.846 234.568h12.094" fill="#FFF"/><path d="M173.846 234.568h12.094" stroke="#969695" stroke-width="2"/><path d="M189.971 234.568h12.094" fill="#FFF"/><path d="M189.971 234.568h12.094" stroke="#969695" stroke-width="2"/><path d="M30.15 246.5h63.183" fill="#FFF"/><path d="M30.15 246.5h63.183" stroke="#969695" stroke-width="2"/><path d="M138.883 246.5h63.182" fill="#FFF"/><path d="M138.883 246.5h63.182" stroke="#969695" stroke-width="2"/><path d="M129.501 257.662h40.314" fill="#FFF"/><path d="M129.501 257.662h40.314" stroke="#969695" stroke-width="2"/><path d="M44.843 257.662h24.188" fill="#FFF"/><path d="M44.843 257.662h24.188" stroke="#969695" stroke-width="2"/><path d="M74.406 257.662h24.188" fill="#FFF"/><path d="M74.406 257.662h24.188" stroke="#969695" stroke-width="2"/><path d="M103.97 257.662h20.156" fill="#FFF"/><path d="M103.97 257.662h20.156" stroke="#969695" stroke-width="2"/><path d="M99.21 246.5h17.632" fill="#FFF"/><path d="M99.21 246.5h17.632" stroke="#969695" stroke-width="2"/><path d="M121.25 246.5h13.225" fill="#FFF"/><path d="M121.25 246.5h13.225" stroke="#969695" stroke-width="2"/><path d="M173.846 257.662h12.094" fill="#FFF"/><path d="M173.846 257.662h12.094" stroke="#969695" stroke-width="2"/><path d="M189.971 257.662h12.094" fill="#FFF"/><path d="M189.971 257.662h12.094" stroke="#969695" stroke-width="2"/><path d="M377.382 324.182c-12.946-12.925-33.934-13.04-46.879-.115l-3.908 3.862-4.222-4.215h-1.579v15.76h15.785V337.9l-3.323-3.319 3.944-3.94c4.623-4.616 10.682-6.866 16.741-6.81a23.987 23.987 0 0 1 16.744 7.04c4.91 4.902 7.173 11.757 6.859 18.06h9.477c.31-9.455-2.88-18-9.64-24.748" fill="#FFF"/><path d="M377.382 324.182c-12.946-12.925-33.934-13.04-46.879-.115l-3.908 3.862-4.222-4.215h-1.579v15.76h15.785V337.9l-3.323-3.319 3.944-3.94c4.623-4.616 10.682-6.866 16.741-6.81a23.987 23.987 0 0 1 16.744 7.04c4.91 4.902 7.173 11.757 6.859 18.06h9.477c.31-9.455-2.88-18-9.64-24.748z" stroke="#969695" stroke-width="2"/><path d="M371.306 355.235v1.576l3.306 3.302-3.928 3.842c-9.246 9.231-24.237 9.119-33.484-.114-4.91-4.903-7.173-11.758-6.86-18.062h-9.476c-.31 9.456 2.88 18 9.64 24.748 12.944 12.925 33.933 13.04 46.877.116l3.909-3.863 4.222 4.215h1.578v-15.76h-15.784z" fill="#FFF"/><path d="M371.306 355.235v1.576l3.306 3.302-3.928 3.842c-9.246 9.231-24.237 9.119-33.484-.114-4.91-4.903-7.173-11.758-6.86-18.062h-9.476c-.31 9.456 2.88 18 9.64 24.748 12.944 12.925 33.933 13.04 46.877.116l3.909-3.863 4.222 4.215h1.578v-15.76h-15.784z" stroke="#969695" stroke-width="2"/><path stroke="#969695" stroke-width="2" d="M360.256 353.66l-6.314-6.305v-14.184"/><path d="M323.804 211.587v83.133c0 7.316-5.995 13.301-13.322 13.301h-99.914c-7.327 0-13.321-5.985-13.321-13.301V115.153c0-7.316 5.994-13.301 13.321-13.301h99.914c7.327 0 13.322 5.985 13.322 13.301v96.434z" fill="#FFF"/><path d="M323.804 211.587v83.133c0 7.316-5.995 13.301-13.322 13.301h-99.914c-7.327 0-13.321-5.985-13.321-13.301V115.153c0-7.316 5.994-13.301 13.321-13.301h99.914c7.327 0 13.322 5.985 13.322 13.301v96.434z" stroke="#969695" stroke-width="2"/><path fill="#FFF" d="M250.534 131.78h-39.966v146.314h99.914v-66.507l-.516-79.246z"/><path stroke="#969695" stroke-width="2" d="M250.534 131.78h-39.966v146.314h99.914v-66.507l-.516-79.246z"/><path d="M257.195 118.478h19.982" fill="#DEEDF8"/><path d="M257.195 118.478h19.982" stroke="#969695" stroke-width="2"/><path d="M243.873 118.478h6.661" fill="#DEEDF8"/><path d="M243.873 118.478h6.661" stroke="#969695" stroke-width="2"/><path d="M250.534 291.395h19.982" fill="#DEEDF8"/><path d="M250.534 291.395h19.982" stroke="#969695" stroke-width="2"/><path d="M243.873 261.467h6.661" fill="#DEEDF8"/><path d="M243.873 261.467h6.661" stroke="#969695" stroke-width="2"/><path d="M257.195 261.467h6.66" fill="#DEEDF8"/><path d="M257.195 261.467h6.66" stroke="#969695" stroke-width="2"/><path d="M270.516 261.467h6.661" fill="#DEEDF8"/><path d="M270.516 261.467h6.661" stroke="#969695" stroke-width="2"/><path d="M344.006 242.668h-36.34l-10.661 9.434v-9.434h-9.69a3.642 3.642 0 0 1-3.635-3.629v-34.833a3.642 3.642 0 0 1 3.634-3.629h56.692a3.642 3.642 0 0 1 3.634 3.629v34.833a3.642 3.642 0 0 1-3.634 3.629" fill="#FFF"/><path d="M344.006 242.668h-36.34l-10.661 9.434v-9.434h-9.69a3.642 3.642 0 0 1-3.635-3.629v-34.833a3.642 3.642 0 0 1 3.634-3.629h56.692a3.642 3.642 0 0 1 3.634 3.629v34.833a3.642 3.642 0 0 1-3.634 3.629z" stroke="#0077C8" stroke-width="2" stroke-linecap="round" stroke-linejoin="round"/><path d="M294.45 231.65h42.42" fill="#FFF"/><path d="M294.45 231.65h42.42" stroke="#0077C8" stroke-width="2"/><path d="M294.45 221.062h42.42" fill="#FFF"/><path d="M294.45 221.062h42.42" stroke="#0077C8" stroke-width="2"/><path d="M294.45 210.473h21.21" fill="#FFF"/><path d="M294.45 210.473h21.21" stroke="#0077C8" stroke-width="2"/><path fill="#FFF" d="M205.023 85.097h-87.076l9.895-28.651h67.286z"/><path stroke="#969695" stroke-width="2" d="M205.023 85.097h-87.076l9.895-28.651h67.286z"/><path d="M163.746 40.616c-8.82.907-16.212-6.475-15.37-15.346.649-6.54 5.967-11.85 12.517-12.496 8.82-.907 16.212 6.475 15.37 15.345-.65 6.54-5.967 11.85-12.517 12.497m24.144-13.129c0-14.086-11.462-25.972-25.571-25.972-14.108 0-25.571 12.061-25.571 26.236 0 5.547 1.763 11.005 4.762 15.407l10.405 14.44 9.082 12.941c.705.969 2.116.969 2.733 0l9.082-12.854 10.405-14.527c2.91-4.402 4.673-10.124 4.673-15.671" fill="#FFF"/><path d="M163.746 40.616c-8.82.907-16.212-6.475-15.37-15.346.649-6.54 5.967-11.85 12.517-12.496 8.82-.907 16.212 6.475 15.37 15.345-.65 6.54-5.967 11.85-12.517 12.497zm24.144-13.129c0-14.086-11.462-25.972-25.571-25.972-14.108 0-25.571 12.061-25.571 26.236 0 5.547 1.763 11.005 4.762 15.407l10.405 14.44 9.082 12.941c.705.969 2.116.969 2.733 0l9.082-12.854 10.405-14.527c2.91-4.402 4.673-10.124 4.673-15.671z" stroke="#969695" stroke-width="2"/><path d="M451.77 173.058h-57.136l-16.762 14.833v-14.833h-15.235c-3.143 0-5.714-2.567-5.714-5.705v-54.767c0-3.138 2.571-5.705 5.714-5.705h89.134c3.142 0 5.713 2.567 5.713 5.705v54.767c0 3.138-2.57 5.705-5.713 5.705" fill="#FFF"/><path d="M451.77 173.058h-57.136l-16.762 14.833v-14.833h-15.235c-3.143 0-5.714-2.567-5.714-5.705v-54.767c0-3.138 2.571-5.705 5.714-5.705h89.134c3.142 0 5.713 2.567 5.713 5.705v54.767c0 3.138-2.57 5.705-5.713 5.705z" stroke="#0077C8" stroke-width="2" stroke-linecap="round" stroke-linejoin="round"/><path d="M373.857 155.736h66.694" fill="#FFF"/><path d="M373.857 155.736h66.694" stroke="#0077C8" stroke-width="2"/><path d="M373.857 139.088h66.694" fill="#FFF"/><path d="M373.857 139.088h66.694" stroke="#0077C8" stroke-width="2"/><path d="M373.857 122.44h33.346" fill="#FFF"/><path d="M373.857 122.44h33.346" stroke="#0077C8" stroke-width="2"/><path d="M247.031 201.335H233.63v12.172l-13.973-12.172h-45.773c-2.579 0-4.69-2.107-4.69-4.682V151.71c0-2.575 2.111-4.682 4.69-4.682h73.147c2.58 0 4.69 2.107 4.69 4.682v44.944c0 2.575-2.11 4.682-4.69 4.682" fill="#FFF"/><path d="M247.031 201.335H233.63v12.172l-13.973-12.172h-45.773c-2.579 0-4.69-2.107-4.69-4.682V151.71c0-2.575 2.111-4.682 4.69-4.682h73.147c2.58 0 4.69 2.107 4.69 4.682v44.944c0 2.575-2.11 4.682-4.69 4.682z" stroke="#0077C8" stroke-width="2" stroke-linecap="round" stroke-linejoin="round"/><path d="M183.092 187.12h54.732" fill="#FFF"/><path d="M183.092 187.12h54.732" stroke="#0077C8" stroke-width="2"/><path d="M183.092 159.796h27.365" fill="#FFF"/><path d="M183.092 159.796h27.365" stroke="#0077C8" stroke-width="2"/><path d="M183.092 173.458h54.732" fill="#FFF"/><path d="M183.092 173.458h54.732" stroke="#0077C8" stroke-width="2"/></g></svg>