<svg id="Layer_1" data-name="Layer 1" xmlns="http://www.w3.org/2000/svg" viewBox="0 0 100 100"><title>fresh-desk</title><path d="M79,39.78c0,3.48,0,6.95,0,10.43A29,29,0,0,1,25.16,64.87a27.58,27.58,0,0,1-3.94-18C22.6,36,28.39,28.17,38.33,23.5A26.66,26.66,0,0,1,49.69,21c7.3,0,14.6,0,21.91,0A7.27,7.27,0,0,1,79,28.47C79,32.24,79,36,79,39.78ZM36.71,50.56c0,2.26-.05,4,0,5.68a4.25,4.25,0,0,0,3.57,4.2,25.13,25.13,0,0,0,3.88.14c.55,0,.7-.17.7-.71,0-3,0-6,0-9,0-.53-.15-.72-.71-.7-1.26,0-2.53,0-3.8,0-.32,0-.66,0-.65-.47a33.62,33.62,0,0,1,.1-4.14A10.29,10.29,0,0,1,50.49,36.9a10.12,10.12,0,0,1,8.74,5.48c1.24,2.21,1.23,4.61,1.23,7,0,.65-.21.8-.81.78-1.24,0-2.47,0-3.71,0-.42,0-.65,0-.64.55q0,4.64,0,9.28c0,.49.22.59.65.58.67,0,1.36,0,2,0s.82.26.72.88a3.88,3.88,0,0,1-3.44,3.27c-1.38.11-2.77.07-4.15.09-.42,0-.89,0-.92.55s.39.71.88.71c1.27,0,2.54,0,3.81,0a5.27,5.27,0,0,0,5-4.94.83.83,0,0,1,.61-.9,3.85,3.85,0,0,0,2.65-3.35c.18-3.76.15-7.54,0-11.3A6.26,6.26,0,0,0,63,44.42a13.26,13.26,0,0,0-18.69-9.23A12.62,12.62,0,0,0,36.91,45,38.66,38.66,0,0,0,36.71,50.56Z" style="fill:#26c06e"/></svg>