<svg id="Layer_1" data-name="Layer 1" xmlns="http://www.w3.org/2000/svg" viewBox="0 0 100 100"><title>paypal</title><path d="M43.7,55.46H36.54c-1,0-1.39-.45-1.23-1.45l3-18.84q1-6.24,2-12.5a1.82,1.82,0,0,1,2-1.73c4.1,0,8.19,0,12.29,0a17.72,17.72,0,0,1,5,.68A7.31,7.31,0,0,1,65,30.18c0,.22,0,.46,0,.69s-.15.62-.22.93a14,14,0,0,1-3,6.52c-2.37,2.74-5.5,3.81-9,4.12-1.76.16-3.52.09-5.28.1a1.76,1.76,0,0,0-2,1.61c-.25,1.42-.45,2.85-.67,4.27Z" style="fill:#012c8a"/><path d="M43.7,55.46l1.14-7c.22-1.42.42-2.85.67-4.27a1.76,1.76,0,0,1,2-1.61c1.76,0,3.52.06,5.28-.1,3.48-.31,6.61-1.38,9-4.12a14,14,0,0,0,3-6.52c.07-.31.14-.62.22-.93a5.43,5.43,0,0,1,3.1,4.66A12.74,12.74,0,0,1,64.6,45.94,10.65,10.65,0,0,1,58,48.85a24.65,24.65,0,0,1-3.1.13,1.54,1.54,0,0,0-1.71,1.47c-.43,2.64-.83,5.27-1.27,7.91a1.49,1.49,0,0,1-1.7,1.4H44.33c-.87,0-1.21-.41-1.08-1.29Z" style="fill:#019ae0"/><path d="M25.49,64.06c.79,0,1.76-.06,2.72.06,2.48.3,3.56,1.74,3.12,4.22a4.75,4.75,0,0,1-5.06,4.36H24.72a.72.72,0,0,0-.83.71c-.14,1-.3,1.9-.43,2.85a.75.75,0,0,1-.85.75c-.64,0-1.28,0-1.92,0-.44,0-.59-.2-.51-.65q.9-5.62,1.78-11.24c.15-1,.24-1.06,1.22-1.06Zm-.22,6.06c.25,0,.5,0,.74-.06a1.83,1.83,0,0,0,1.91-1.93,1.18,1.18,0,0,0-1.08-1.39c-.45-.07-.92,0-1.38-.08s-.54.18-.59.53c-.1.7-.22,1.4-.33,2.1S24.42,70.12,25.27,70.12Z" style="fill:#012c8a"/><path d="M58.69,64.06a27,27,0,0,1,2.92.08,3.09,3.09,0,0,1,3,3.66c-.2,2.57-1.53,4.25-3.8,4.74a8.34,8.34,0,0,1-1.32.15c-.5,0-1,0-1.49,0s-.79.14-.89.75c-.16.94-.33,1.89-.45,2.84-.06.53-.28.76-.82.72s-1.18,0-1.77,0-.76-.1-.66-.75c.4-2.55.81-5.09,1.21-7.64.2-1.25.39-2.5.59-3.75.1-.63.28-.79.91-.8Zm-.22,6.06.8-.06a1.82,1.82,0,0,0,1.84-2A1.14,1.14,0,0,0,60,66.73c-.44-.06-.89,0-1.33-.07s-.52.14-.57.49c-.1.72-.22,1.44-.33,2.16S57.64,70.12,58.47,70.12Z" style="fill:#019ae0"/><path d="M38.5,69.2c.28-.83.28-.83,1.2-.82h1.39c.41,0,.61.15.54.58-.39,2.5-.79,5-1.18,7.49a.61.61,0,0,1-.62.56c-.66,0-1.32,0-2,0s-.37-.54-.4-.9c-.19,0-.27.16-.38.24A4.42,4.42,0,0,1,33,77a3.18,3.18,0,0,1-2.24-2.86A5.16,5.16,0,0,1,37,68.3,2.34,2.34,0,0,1,38.5,69.2Zm-2.18,1.35a2.5,2.5,0,0,0-2.56,2.52,1.62,1.62,0,0,0,1.37,1.71,2.48,2.48,0,0,0,3-2A1.75,1.75,0,0,0,36.32,70.55Z" style="fill:#012c8a"/><path d="M70.61,76.13a5.08,5.08,0,0,1-2.84,1.08,3.5,3.5,0,0,1-3.86-3.68,5.28,5.28,0,0,1,4-5.25,5.2,5.2,0,0,1,2.54.08,2,2,0,0,1,1.21.86c.19-.29.07-.65.37-.79a2.09,2.09,0,0,1,.79-.06c.48,0,1,0,1.44,0s.62.17.54.63q-.58,3.63-1.14,7.28a.75.75,0,0,1-.87.73c-.51,0-1,0-1.55,0s-.66-.07-.63-.68a1.42,1.42,0,0,0,0-.2l.06,0h0Zm-1.12-5.58A2.5,2.5,0,0,0,67,73.27a1.58,1.58,0,0,0,1.19,1.47,2.52,2.52,0,0,0,3.17-1.93A1.77,1.77,0,0,0,69.49,70.55Z" style="fill:#019ae0"/><path d="M47.24,73.09a.88.88,0,0,0,.38-.42c.67-1,1.31-2,2-2.91,1.18-1.69.53-1.34,2.63-1.38a8,8,0,0,1,.85,0c.39,0,.53.28.35.63a2.11,2.11,0,0,1-.21.31c-2.34,3.38-4.68,6.75-7,10.14a1,1,0,0,1-1,.52c-.57,0-1.14,0-1.71,0-.22,0-.47.1-.62-.18s.06-.43.19-.62c.62-.88,1.24-1.78,1.88-2.65a.77.77,0,0,0,.13-.82c-.75-2.17-1.48-4.34-2.22-6.51-.22-.66-.12-.81.56-.81s1.07,0,1.6,0a.88.88,0,0,1,1,.75C46.42,70.44,46.83,71.74,47.24,73.09Z" style="fill:#012c8a"/><path d="M78.58,64.06h.7c.71,0,.79.1.68.83q-.9,5.65-1.78,11.29c-.11.68-.26.82-.94.82-.46,0-.93,0-1.39,0-.63,0-.73-.11-.63-.72.32-2.1.66-4.19,1-6.28L77,64.83c.11-.74.13-.77.87-.77Z" style="fill:#019ae0"/><path d="M25.27,70.12c-.85,0-.85,0-.73-.83s.23-1.4.33-2.1c.05-.35.21-.55.59-.53s.93,0,1.38.08a1.18,1.18,0,0,1,1.08,1.39A1.83,1.83,0,0,1,26,70.06C25.77,70.09,25.52,70.1,25.27,70.12Z" style="fill:#fdfefe"/><path d="M58.47,70.12c-.83,0-.84,0-.71-.81s.23-1.44.33-2.16c0-.35.22-.51.57-.49s.89,0,1.33.07A1.14,1.14,0,0,1,61.11,68a1.82,1.82,0,0,1-1.84,2Z" style="fill:#fdfefe"/><path d="M36.32,70.55a1.75,1.75,0,0,1,1.8,2.25,2.48,2.48,0,0,1-3,2,1.62,1.62,0,0,1-1.37-1.71A2.5,2.5,0,0,1,36.32,70.55Z" style="fill:#fdfefe"/><path d="M69.49,70.55a1.77,1.77,0,0,1,1.85,2.26,2.52,2.52,0,0,1-3.17,1.93A1.58,1.58,0,0,1,67,73.27,2.5,2.5,0,0,1,69.49,70.55Z" style="fill:#fdfefe"/><path d="M70.61,76.13l0,0h0l-.06,0Z" style="fill:#fdfefe"/></svg>