<svg id="Layer_1" data-name="Layer 1" xmlns="http://www.w3.org/2000/svg" viewBox="0 0 100 100"><title>quickbooks</title><path d="M79.91,49.94A29.8,29.8,0,0,1,49.32,80,29.65,29.65,0,0,1,19.94,49.43,29.64,29.64,0,0,1,50.53,20,29.79,29.79,0,0,1,79.91,49.94ZM48.57,52.88q0-7.11,0-14.22c0-.5-.12-.66-.63-.65-2.41,0-4.81,0-7.21,0A12,12,0,1,0,41.29,62c.35,0,.43-.14.43-.46,0-.86,0-1.71,0-2.57,0-1.19,0-1.19-1.16-1.2a7.73,7.73,0,0,1-.66-15.43c1.19-.1,2.4,0,3.6-.06,1,0,.86-.11.86.86q0,12,0,24c0,.5.12.67.64.65a27.86,27.86,0,0,1,2.89,0c.56,0,.72-.12.72-.7C48.56,62.33,48.57,57.6,48.57,52.88Zm2.66-5.79c0,4.74,0,9.48,0,14.23,0,.5.13.64.63.63,2.49,0,5,0,7.47,0A12,12,0,1,0,58.56,38c-.36,0-.49.12-.48.49,0,.75,0,1.5,0,2.25,0,1.43,0,1.43,1.4,1.49a7.74,7.74,0,0,1-.33,15.48c-1,0-2.06,0-3.09,0-.49,0-.66-.1-.65-.63,0-2.19,0-4.38,0-6.56q0-8.84,0-17.65c0-.46-.06-.68-.61-.66a25.33,25.33,0,0,1-2.89,0c-.63,0-.73.2-.72.76C51.24,37.69,51.23,42.39,51.23,47.09Z" style="fill:#25a206"/></svg>