<svg id="Layer_1" data-name="Layer 1" xmlns="http://www.w3.org/2000/svg" viewBox="0 0 100 100"><title>salesforce</title><g id="_6KkfLv" data-name="6KkfLv"><path d="M36.78,28.36a3.29,3.29,0,0,0,1.16.28,12.1,12.1,0,0,1,6.91,4.14c.27.33.4.33.71,0a11,11,0,0,1,17,2.18.58.58,0,0,0,.87.28,13.66,13.66,0,1,1,6.71,26.3,11.91,11.91,0,0,1-3.86-.07.74.74,0,0,0-.89.4,9.88,9.88,0,0,1-12.16,3.82c-.44-.18-.6-.11-.82.32a11.1,11.1,0,0,1-9,6.26,11.27,11.27,0,0,1-11.58-6.77c-.19-.46-.39-.52-.86-.45a10.59,10.59,0,0,1-7.15-19.44c.38-.25.25-.43.15-.71a12.2,12.2,0,0,1,8.73-16.26,4.12,4.12,0,0,0,1.34-.33ZM51.17,54.48a1.91,1.91,0,0,0,1.66-.72,3.84,3.84,0,0,0,.63-1.62c.26-1.39.53-2.77.73-4.16.09-.62.29-.93,1-.79s.62-.34.64-.71-.39-.2-.61-.27a.71.71,0,0,0-.29,0c-.3,0-.35-.08-.29-.37.18-.85.45-1.09,1.39-1,.56,0,.47-.45.56-.73s-.26-.27-.43-.3a2.13,2.13,0,0,0-2.65,1.84c-.1.42-.22.66-.71.6s-.41.4-.47.69.24.29.43.27c.42,0,.44.16.38.49-.14.67-.24,1.35-.38,2a26.17,26.17,0,0,1-.58,2.93c-.22.71-.56,1-1.2.82s-.57.35-.66.64.29.31.49.37A1.89,1.89,0,0,0,51.17,54.48ZM37.84,49.6h0c0-.55,0-1.1,0-1.65a1.65,1.65,0,0,0-1-1.61,4,4,0,0,0-3.19.13c-.45.18-.11.48-.06.73s.23.29.47.18a3.19,3.19,0,0,1,1.83-.23.82.82,0,0,1,.73.67c.08.34,0,.55-.42.47a3.23,3.23,0,0,0-2.22.33,1.73,1.73,0,0,0-.86,1.9,1.55,1.55,0,0,0,1.28,1.35,6.89,6.89,0,0,0,3.19-.17c.22-.05.24-.21.24-.4C37.83,50.73,37.84,50.16,37.84,49.6Zm35.77-.23h1.53c.22,0,.38,0,.4-.3.15-1.71-.75-3-2.47-3a2.52,2.52,0,0,0-2.53,2.24c-.3,1.64.29,3,1.54,3.44a4.44,4.44,0,0,0,2.88,0c.32-.09.42-.24.27-.55s-.09-.61-.57-.42a3.19,3.19,0,0,1-1.68.14,1.34,1.34,0,0,1-1.18-1.14c0-.28,0-.44.34-.43S73.12,49.37,73.61,49.37Zm-29.25,0h1.53c.22,0,.37,0,.39-.31.15-1.75-.78-3-2.48-3a2.51,2.51,0,0,0-2.51,2.19,2.89,2.89,0,0,0,1.44,3.45,4.39,4.39,0,0,0,3,0c.32-.09.39-.25.25-.56s-.11-.6-.58-.41a3.19,3.19,0,0,1-1.68.14,1.35,1.35,0,0,1-1.18-1.21c0-.24,0-.36.3-.35C43.34,49.38,43.85,49.37,44.36,49.37Zm11.54-.32a2.66,2.66,0,0,0,1.69,2.8A2.59,2.59,0,0,0,61,50.42a3.23,3.23,0,0,0-1.25-4.1l-.28-.1C57.49,45.59,55.9,46.87,55.9,49.05Zm-6.73,3h.29a1.79,1.79,0,0,0,1.89-1.42c.15-.95-.22-1.5-1.32-1.91-.4-.15-.81-.28-1.21-.44s-.54-.29-.48-.64a.68.68,0,0,1,.69-.53,3.07,3.07,0,0,1,1.49.3c.27.12.45.16.56-.2s.26-.56-.19-.75a4,4,0,0,0-2.3-.27,1.7,1.7,0,0,0-1.44,1.56,1.51,1.51,0,0,0,1.13,1.59c.44.17.89.29,1.33.45s.68.3.57.76-.43.52-.8.54a3.09,3.09,0,0,1-1.63-.41c-.17-.09-.4-.4-.54,0s-.43.61.1.88A4,4,0,0,0,49.17,52ZM30.24,52h.3a1.79,1.79,0,0,0,1.89-1.43c.15-.94-.23-1.49-1.33-1.9-.4-.15-.81-.28-1.21-.44s-.55-.29-.48-.65a.69.69,0,0,1,.7-.52,3.15,3.15,0,0,1,1.48.3c.23.09.44.23.53-.15s.37-.55-.11-.77a3.79,3.79,0,0,0-2.41-.29,1.7,1.7,0,0,0-1.38,1.55,1.52,1.52,0,0,0,1.14,1.59c.44.18.89.29,1.33.46s.64.27.58.7-.43.57-.83.59a3.14,3.14,0,0,1-1.63-.41c-.14-.08-.37-.4-.5,0s-.49.61,0,.9A3.62,3.62,0,0,0,30.24,52Zm38.38-5.93a2.7,2.7,0,0,0-2.91,2.77,4.18,4.18,0,0,0,.1,1.11,2.45,2.45,0,0,0,2.28,2,5.88,5.88,0,0,0,1.51-.09c.5-.09.61-.28.4-.74-.13-.3-.25-.35-.56-.27-1.08.26-1.9,0-2.23-.67a2.5,2.5,0,0,1,.1-2.47,1.6,1.6,0,0,1,2-.54c.64.16.71-.22.78-.61s-.38-.34-.61-.41A3.59,3.59,0,0,0,68.62,46.07ZM39,47.87c0,1.15,0,2.31,0,3.46,0,.45.13.58.57.55s.66,0,.65-.52c0-2.33,0-4.66,0-7,0-.5-.21-.52-.6-.52s-.64,0-.62.55C39.05,45.56,39,46.72,39,47.87ZM62.15,49c0,.76,0,1.53,0,2.29,0,.47.14.58.59.59s.64-.12.62-.62a22,22,0,0,1,0-2.81,1.2,1.2,0,0,1,1.35-1.23.73.73,0,0,0,.75-.78c0-.39-.41-.26-.64-.29a1.67,1.67,0,0,0-1.18.27c-.13.08-.23.28-.4-.07s-.64-.15-1-.12-.16.31-.16.49C62.15,47.49,62.15,48.25,62.15,49Z" style="fill:#01a1df"/><path d="M51.17,54.48a1.89,1.89,0,0,1-.41,0c-.2-.06-.61,0-.49-.37s0-.78.66-.64,1-.11,1.2-.82a26.17,26.17,0,0,0,.58-2.93c.14-.67.24-1.35.38-2,.06-.33,0-.53-.38-.49-.19,0-.49.1-.43-.27s-.07-.76.47-.69.61-.18.71-.6a2.13,2.13,0,0,1,2.65-1.84c.17,0,.53,0,.43.3s0,.76-.56.73c-.94-.06-1.21.18-1.39,1-.06.29,0,.4.29.37a.71.71,0,0,1,.29,0c.22.07.63-.23.61.27s0,.84-.64.71-.86.17-1,.79c-.2,1.39-.47,2.77-.73,4.16a3.84,3.84,0,0,1-.63,1.62A1.91,1.91,0,0,1,51.17,54.48Z" style="fill:#f6fbfd"/><path d="M37.84,49.6c0,.56,0,1.13,0,1.7,0,.19,0,.35-.24.4a6.89,6.89,0,0,1-3.19.17,1.55,1.55,0,0,1-1.28-1.35,1.73,1.73,0,0,1,.86-1.9,3.23,3.23,0,0,1,2.22-.33c.47.08.5-.13.42-.47a.82.82,0,0,0-.73-.67,3.19,3.19,0,0,0-1.83.23c-.24.11-.41.13-.47-.18s-.39-.55.06-.73a4,4,0,0,1,3.19-.13,1.65,1.65,0,0,1,1,1.61c0,.55,0,1.1,0,1.65Zm-1.18.5c0-.92,0-.92-.94-.92s-1.41.32-1.42,1,.4.91,1.24.91C36.62,51,36.66,51,36.66,50.1Z" style="fill:#f6fbfd"/><path d="M73.61,49.37c-.49,0-1,0-1.47,0s-.39.15-.34.43A1.34,1.34,0,0,0,73,50.93a3.19,3.19,0,0,0,1.68-.14c.48-.19.45.18.57.42s0,.46-.27.55a4.44,4.44,0,0,1-2.88,0c-1.25-.47-1.84-1.8-1.54-3.44a2.52,2.52,0,0,1,2.53-2.24c1.72-.06,2.62,1.27,2.47,3,0,.26-.18.3-.4.3Zm-.51-.92c.31,0,.62,0,.93,0s.35-.06.29-.34a1.18,1.18,0,0,0-1-1,1.14,1.14,0,0,0-1.3.58c-.12.21-.31.47-.18.7s.39.06.6.07S72.88,48.45,73.1,48.45Z" style="fill:#f6fbfd"/><path d="M44.36,49.37c-.51,0-1,0-1.53,0-.27,0-.32.11-.3.35a1.35,1.35,0,0,0,1.18,1.21,3.19,3.19,0,0,0,1.68-.14c.47-.19.46.16.58.41s.07.47-.25.56a4.39,4.39,0,0,1-3,0,2.89,2.89,0,0,1-1.44-3.45,2.51,2.51,0,0,1,2.51-2.19c1.7-.07,2.63,1.22,2.48,3,0,.26-.17.31-.39.31Zm-.54-.93h1c.25,0,.28-.1.24-.33a1.22,1.22,0,0,0-1.21-1.06,1.3,1.3,0,0,0-1.28,1.08c0,.24,0,.31.26.31Z" style="fill:#f6fbfd"/><path d="M55.9,49.05c0-2.18,1.59-3.46,3.52-2.83l.28.1A3.23,3.23,0,0,1,61,50.42a2.59,2.59,0,0,1-3.36,1.43A2.66,2.66,0,0,1,55.9,49.05Zm4,0a2.76,2.76,0,0,0-.2-1.2,1.18,1.18,0,0,0-1.19-.78,1.16,1.16,0,0,0-1.18.79,3.43,3.43,0,0,0,0,2.3,1.16,1.16,0,0,0,1.21.83,1.18,1.18,0,0,0,1.2-.85A2.68,2.68,0,0,0,59.92,49.07Z" style="fill:#f6fbfd"/><path d="M49.17,52a4,4,0,0,1-1.86-.46c-.53-.27-.19-.59-.1-.88s.37-.12.54,0a3.09,3.09,0,0,0,1.63.41c.37,0,.71-.13.8-.54s-.22-.63-.57-.76-.89-.28-1.33-.45a1.51,1.51,0,0,1-1.13-1.59,1.7,1.7,0,0,1,1.44-1.56,4,4,0,0,1,2.3.27c.45.19.27.45.19.75s-.29.32-.56.2a3.07,3.07,0,0,0-1.49-.3.68.68,0,0,0-.69.53c-.06.35.2.53.48.64s.81.29,1.21.44c1.1.41,1.47,1,1.32,1.91A1.79,1.79,0,0,1,49.46,52Z" style="fill:#f6fbfd"/><path d="M30.24,52a3.62,3.62,0,0,1-1.9-.49c-.52-.29-.13-.62,0-.9s.36-.06.5,0a3.14,3.14,0,0,0,1.63.41c.4,0,.75-.14.83-.59s-.26-.59-.58-.7-.89-.28-1.33-.46a1.52,1.52,0,0,1-1.14-1.59,1.7,1.7,0,0,1,1.38-1.55,3.79,3.79,0,0,1,2.41.29c.48.22.17.49.11.77s-.3.24-.53.15a3.15,3.15,0,0,0-1.48-.3.69.69,0,0,0-.7.52c-.07.36.2.53.48.65s.81.29,1.21.44c1.1.41,1.48,1,1.33,1.9A1.79,1.79,0,0,1,30.54,52Z" style="fill:#f6fbfd"/><path d="M68.62,46.07a3.59,3.59,0,0,1,.81.1c.23.07.69-.06.61.41s-.14.77-.78.61a1.6,1.6,0,0,0-2,.54,2.5,2.5,0,0,0-.1,2.47c.33.69,1.15.93,2.23.67.31-.08.43,0,.56.27.21.46.1.65-.4.74a5.88,5.88,0,0,1-1.51.09,2.45,2.45,0,0,1-2.28-2,4.18,4.18,0,0,1-.1-1.11A2.7,2.7,0,0,1,68.62,46.07Z" style="fill:#f6fbfd"/><path d="M39,47.87c0-1.15,0-2.31,0-3.46,0-.52.22-.56.62-.55s.6,0,.6.52c0,2.32,0,4.65,0,7,0,.56-.29.49-.65.52s-.58-.1-.57-.55C39,50.18,39,49,39,47.87Z" style="fill:#f6fbfd"/><path d="M62.15,49c0-.76,0-1.52,0-2.28,0-.18-.12-.47.16-.49s.78-.23,1,.12.27.15.4.07a1.67,1.67,0,0,1,1.18-.27c.23,0,.61-.1.64.29a.73.73,0,0,1-.75.78,1.2,1.2,0,0,0-1.35,1.23,22,22,0,0,0,0,2.81c0,.5-.14.62-.62.62s-.61-.12-.59-.59C62.18,50.54,62.15,49.77,62.15,49Z" style="fill:#f6fbfd"/><path d="M36.66,50.1c0,.91,0,.94-1.12.94-.84,0-1.25-.3-1.24-.91s.51-1,1.42-1S36.66,49.18,36.66,50.1Z" style="fill:#01a1df"/><path d="M73.1,48.45c-.22,0-.43,0-.65,0s-.5.11-.6-.07.06-.49.18-.7a1.14,1.14,0,0,1,1.3-.58,1.18,1.18,0,0,1,1,1c.06.28,0,.35-.29.34S73.41,48.45,73.1,48.45Z" style="fill:#01a1df"/><path d="M43.82,48.44h-1c-.23,0-.31-.07-.26-.31a1.3,1.3,0,0,1,1.28-1.08,1.22,1.22,0,0,1,1.21,1.06c0,.23,0,.33-.24.33Z" style="fill:#01a1df"/><path d="M59.92,49.07a2.68,2.68,0,0,1-.17,1.09,1.18,1.18,0,0,1-1.2.85,1.16,1.16,0,0,1-1.21-.83,3.43,3.43,0,0,1,0-2.3,1.16,1.16,0,0,1,1.18-.79,1.18,1.18,0,0,1,1.19.78A2.76,2.76,0,0,1,59.92,49.07Z" style="fill:#01a1df"/></g></svg>