<svg id="Layer_1" data-name="Layer 1" xmlns="http://www.w3.org/2000/svg" viewBox="0 0 100 100"><title>sharepoint</title><g id="DBE5yV.tif"><path d="M80,50.68c-.25,2.36-2.1,5-4.61,5a1.8,1.8,0,0,0-1.25.89,22.66,22.66,0,0,1-7.34,7.27,1.35,1.35,0,0,0-.7,1.07,5.77,5.77,0,0,1-7.28,4.54.84.84,0,0,1-.73-1c0-3.08,0-6.15,0-9.23a.8.8,0,0,1,.68-.9,5.74,5.74,0,0,1,6.47,2.39c.33.5.54.57,1,.21a22.1,22.1,0,0,0,5-5c.33-.46.37-.68-.17-1-3.67-2.47-3.63-7.24.08-9.74.47-.31.42-.51.14-.91a22,22,0,0,0-5.15-5.14c-.44-.31-.62-.21-.91.21a5.76,5.76,0,0,1-6.36,2.49c-.58-.15-.85-.38-.84-1,0-3,0-6,0-9,0-.66.24-.89.83-1.06a5.78,5.78,0,0,1,7.18,4.59,1.24,1.24,0,0,0,.63,1,22.52,22.52,0,0,1,7.46,7.39,1.66,1.66,0,0,0,1.2.81A6,6,0,0,1,80,49.93,3.78,3.78,0,0,1,80,50.68Z" style="fill:#056ec3"/><path d="M55.43,49.88v28.8c0,1.12,0,1.12-1,.91Q37.71,76.2,21,72.85c-.72-.15-.89-.42-.89-1.13q0-21.84,0-43.7c0-.7.17-1,.9-1.12q16.83-3.37,33.65-6.81c.92-.19.77.3.77.81Q55.43,35.39,55.43,49.88ZM43.4,43c0-1.48,0-2.82,0-4.15a.63.63,0,0,0-.56-.7,12.06,12.06,0,0,0-8.31.29,6.28,6.28,0,0,0-3.72,7.72A7.18,7.18,0,0,0,35,50.38c1.23.58,2.54,1,3.76,1.64a2.4,2.4,0,0,1,1.56,2.71,2.54,2.54,0,0,1-2.42,2,8.86,8.86,0,0,1-4.24-.44c-.79-.26-1.55-.63-2.39-1,0,1.45,0,2.85,0,4.25a.62.62,0,0,0,.49.67c3.23,1,6.47,1.29,9.64-.12a6.59,6.59,0,0,0,2.52-10.25,10.36,10.36,0,0,0-4.21-2.66,11.8,11.8,0,0,1-3.42-1.71,1.91,1.91,0,0,1,.35-3.26,3.46,3.46,0,0,1,1.22-.37A9.51,9.51,0,0,1,43.4,43Z" style="fill:#016dc3"/><path d="M43.4,43a9.51,9.51,0,0,0-5.52-1.14,3.46,3.46,0,0,0-1.22.37,1.91,1.91,0,0,0-.35,3.26,11.8,11.8,0,0,0,3.42,1.71,10.36,10.36,0,0,1,4.21,2.66,6.59,6.59,0,0,1-2.52,10.25c-3.17,1.41-6.41,1.15-9.64.12a.62.62,0,0,1-.49-.67c0-1.4,0-2.8,0-4.25.84.34,1.6.71,2.39,1a8.86,8.86,0,0,0,4.24.44,2.54,2.54,0,0,0,2.42-2A2.4,2.4,0,0,0,38.79,52C37.57,51.41,36.26,51,35,50.38a7.18,7.18,0,0,1-4.21-4.2,6.28,6.28,0,0,1,3.72-7.72,12.06,12.06,0,0,1,8.31-.29.63.63,0,0,1,.56.7C43.38,40.2,43.4,41.54,43.4,43Z" style="fill:#fdfdfe"/></g></svg>