<svg id="Layer_1" data-name="Layer 1" xmlns="http://www.w3.org/2000/svg" viewBox="0 0 100 100"><title>shopify</title><path d="M58,80.06c-3.5-.63-7-1.24-10.49-1.89C40,76.77,32.48,75.34,24.94,74c-.73-.14-1-.28-.89-1.16q2.25-16.94,4.4-33.88a2.08,2.08,0,0,1,1.66-2c1.58-.42,3.13-1,4.71-1.43a1.57,1.57,0,0,0,1.25-1.27,24.61,24.61,0,0,1,4.55-9.45,10,10,0,0,1,7.11-4A3.92,3.92,0,0,1,51,21.89a1.37,1.37,0,0,0,.93.55c2.57.13,4.07,1.71,5.21,3.8.06.12.13.24.19.37.76,1.56.76,1.56,2.38,1.16a1.37,1.37,0,0,1,.8,0c0,1.64-.11,3.27-.19,4.91-.13,2.69-.29,5.38-.4,8.07q-.28,6.39-.64,12.78c-.19,3.64-.23,7.3-.47,10.94-.09,1.43-.11,2.87-.18,4.3Q58.33,74.4,58,80.06ZM40.8,71.2A9.84,9.84,0,0,0,45.25,70c4.18-2.34,6.32-10.51.71-14.9-1.21-1-2.44-1.89-3.63-2.86a2.34,2.34,0,0,1-.93-2.63,2.66,2.66,0,0,1,2.16-1.84,8.74,8.74,0,0,1,5.22.61c.55.21.76.14.94-.42.56-1.76,1.13-3.52,1.77-5.25.27-.72,0-1-.62-1.15A13.53,13.53,0,0,0,39.2,43.39c-4.28,3-6.64,11.08-.51,15.24a12,12,0,0,1,1,.85,5.57,5.57,0,0,1,1.6,2A2.37,2.37,0,0,1,38.78,65a9.53,9.53,0,0,1-4.53-2.06c-.54-.39-.78-.34-1,.35-.3,1.16-.65,2.31-1.06,3.43a1.29,1.29,0,0,0,.47,1.6A12.83,12.83,0,0,0,40.8,71.2ZM48.88,23a5,5,0,0,0-4.6,1.08c-3.22,2.43-4.63,6-5.89,9.65-.2.59.16.56.53.45l3.43-1.06a.93.93,0,0,0,.68-.79C43.88,28.56,45.38,25.18,48.88,23Zm-3.62,9.22c1.91-.59,3.59-1.14,5.3-1.63.55-.15.67-.44.66-.95a20.8,20.8,0,0,0-.49-3.86c-.17-.83-.51-.87-1.17-.43C47.18,27,46.08,29.37,45.26,32.22Zm8.06-2.57c3-.6,3.23-1.09,1.45-3.57a4.9,4.9,0,0,0-.75-.83,2,2,0,0,0-1.45-.63A20.77,20.77,0,0,1,53.32,29.65Z" style="fill:#94be47"/><path d="M58,80.06q.3-5.66.59-11.33c.07-1.43.09-2.87.18-4.3.24-3.64.28-7.3.47-10.94q.35-6.39.64-12.78c.11-2.69.27-5.38.4-8.07.08-1.64.19-3.27.19-4.91.46-.11.69.24.95.49A18.28,18.28,0,0,1,63.25,30a4.1,4.1,0,0,0,3.59,1.53c.68,0,1.36.14,2,.14.84,0,1.1.41,1.22,1.17q2.1,14.35,4.25,28.7c.69,4.63,1.36,9.26,2.07,13.89.12.73-.33.79-.79.89-4.54,1-9.07,2-13.61,2.91C60.69,79.55,59.35,79.8,58,80.06Z" style="fill:#5f8e3f"/><path d="M48.88,23c-3.5,2.18-5,5.56-5.85,9.33a.93.93,0,0,1-.68.79l-3.43,1.06c-.37.11-.73.14-.53-.45,1.26-3.65,2.67-7.22,5.89-9.65A5,5,0,0,1,48.88,23Z" style="fill:#fefefe"/><path d="M45.26,32.22c.82-2.85,1.92-5.25,4.3-6.87.66-.44,1-.4,1.17.43a20.8,20.8,0,0,1,.49,3.86c0,.51-.11.8-.66.95C48.85,31.08,47.17,31.63,45.26,32.22Z" style="fill:#fefefe"/><path d="M53.32,29.65a20.77,20.77,0,0,0-.75-5,2,2,0,0,1,1.45.63,4.9,4.9,0,0,1,.75.83C56.55,28.56,56.36,29.05,53.32,29.65Z" style="fill:#fefefe"/></svg>