<svg id="Layer_1" data-name="Layer 1" xmlns="http://www.w3.org/2000/svg" viewBox="0 0 100 100"><title>squarespace</title><path d="M79,49.21a10.69,10.69,0,0,1-2.93,7.89c-5,5-10,10-15,15a2,2,0,0,1-2.93.11,2,2,0,0,1,.19-3Q65.65,61.93,73,54.62a6.49,6.49,0,0,0,1.76-6.83,6.41,6.41,0,0,0-5.16-4.67,6.64,6.64,0,0,0-6.28,2c-3.23,3.25-6.47,6.47-9.7,9.71l-8.38,8.39a2,2,0,1,1-2.82-2.79q9.18-9.21,18.4-18.39A10.54,10.54,0,0,1,72.51,39.9,10.37,10.37,0,0,1,79,49.21Z"/><path d="M20.48,50a10.64,10.64,0,0,1,3.1-7.8q7.34-7.38,14.7-14.71a2,2,0,0,1,3-.25,2,2,0,0,1-.23,3q-7.28,7.3-14.57,14.59a6.75,6.75,0,0,0,5.14,11.61,6.89,6.89,0,0,0,4.58-2.21Q43.46,47,50.69,39.81c1.2-1.21,2.41-2.43,3.63-3.63a2,2,0,1,1,2.83,2.76C51,45.08,44.92,51.23,38.75,57.33a10.17,10.17,0,0,1-10.86,2.58,10.23,10.23,0,0,1-7.25-8.37A11.66,11.66,0,0,1,20.48,50Z"/><path d="M43.67,72.82a10.7,10.7,0,0,1-7.45-2.88A2,2,0,1,1,38.9,67a6.73,6.73,0,0,0,9.61-.29L66.46,48.77a4,4,0,0,1,1.19-.88,1.89,1.89,0,0,1,2.26.74,1.93,1.93,0,0,1-.24,2.51c-1.32,1.36-2.66,2.68-4,4L51.23,69.6A10.54,10.54,0,0,1,43.67,72.82Z"/><path d="M56,26.66a10.64,10.64,0,0,1,7.17,2.78c1.09,1,1.25,2.2.42,3.09s-2,.82-3-.12a6.72,6.72,0,0,0-9.54.37q-8.58,8.55-17.14,17.14l-1,1a2,2,0,0,1-3,.2c-.83-.85-.73-2,.27-3L34.18,44l14-14A10.69,10.69,0,0,1,56,26.66Z"/></svg>