<svg id="Layer_1" data-name="Layer 1" xmlns="http://www.w3.org/2000/svg" xmlns:xlink="http://www.w3.org/1999/xlink" viewBox="0 0 100 100"><defs><mask id="mask" x="20.12" y="36.78" width="60" height="24.88" maskUnits="userSpaceOnUse"><g id="b"><path id="a" d="M20.13,36.78h60V61.66h-60Z" style="fill:#fff"/></g></mask></defs><title>stripe</title><rect width="100" height="100" style="fill:#6772e5"/><g style="mask:url(#mask)"><path d="M26.39,48c-1.29-.48-2-.85-2-1.43s.41-.78,1.14-.78a8.76,8.76,0,0,1,3.63,1l.53-3.28a10.35,10.35,0,0,0-4.38-.93,5.65,5.65,0,0,0-3.61,1.11,4,4,0,0,0-1.4,3.19c0,2.41,1.47,3.44,3.86,4.3,1.54.55,2.06.94,2.06,1.54s-.5.93-1.4.93a9.78,9.78,0,0,1-4.17-1.26l-.53,3.31a10.87,10.87,0,0,0,4.93,1.19,6,6,0,0,0,3.77-1.08,4.12,4.12,0,0,0,1.51-3.42c0-2.46-1.51-3.49-3.94-4.36ZM39,46l.53-3.26H36.7v-4l-3.77.62-.54,3.33L31.06,43l-.5,3h1.82v6.39A4.27,4.27,0,0,0,33.67,56a5.05,5.05,0,0,0,3.24.87,8.34,8.34,0,0,0,2.31-.32V53.05a5.55,5.55,0,0,1-1.28.2c-.87,0-1.24-.44-1.24-1.45V46Zm8.42-3.45a2.62,2.62,0,0,0-2.62,1.82l-.27-1.63H40.67V56.56h4.39V47.62a2.82,2.82,0,0,1,2.39-.92,4.47,4.47,0,0,1,.78,0v-4A3.65,3.65,0,0,0,47.4,42.59Zm4.11-1.17a2.32,2.32,0,1,0-2.32-2.32,2.32,2.32,0,0,0,2.32,2.32Zm-2.22,1.36H53.7V56.56H49.29ZM66.2,44A3.85,3.85,0,0,0,63,42.52a4.61,4.61,0,0,0-3.44,1.64l-.23-1.38H55.43V61.66l4.4-.72V56.51a6.76,6.76,0,0,0,2,.32,5.26,5.26,0,0,0,3.93-1.63c1.19-1.3,1.79-3.3,1.79-5.94A8.51,8.51,0,0,0,66.2,44Zm-3.65,8.5a1.71,1.71,0,0,1-1.54,1,2.53,2.53,0,0,1-1.18-.27V46.73a2.38,2.38,0,0,1,1.66-.87c1.12,0,1.67,1.21,1.67,3.56a6.32,6.32,0,0,1-.61,3.1Zm17.57-3a8.35,8.35,0,0,0-1.41-5.16,5,5,0,0,0-4.22-1.87c-3.74,0-6.06,2.76-6.06,7.19,0,2.48.62,4.34,1.85,5.52A6.46,6.46,0,0,0,75,56.83a9,9,0,0,0,4.71-1.17l-.48-3a7.84,7.84,0,0,1-3.75.9A2.67,2.67,0,0,1,73.61,53a2.74,2.74,0,0,1-.82-1.93h7.28c0-.21.05-1.2.05-1.52Zm-7.36-1.17c.12-2,.65-2.89,1.66-2.89s1.51.94,1.58,2.89Z" style="fill:#fff"/></g></svg>