<svg id="Layer_1" data-name="Layer 1" xmlns="http://www.w3.org/2000/svg" viewBox="0 0 100 100"><title>webflow</title><path d="M100,0V100H0V0Z" style="fill:#4353ff"/><path d="M64.75,42.2s-4.6,14.43-4.94,15.66c-.14-1.2-3.5-27.14-3.5-27.14-7.85,0-12,5.58-14.25,11.48L36,57.88c0-1.13-.86-15.54-.86-15.54-.48-7.24-7.08-11.62-12.43-11.62L29.15,70c8.21,0,12.64-5.58,15-11.5,0,0,4.93-12.78,5.13-13.35C49.28,45.7,52.77,70,52.77,70,61,70,65.46,64.8,67.84,59.11L79.39,30.72C71.24,30.72,67,36.28,64.75,42.2Z" style="fill:#fff"/></svg>