<svg id="Layer_1" data-name="Layer 1" xmlns="http://www.w3.org/2000/svg" viewBox="0 0 100 100"><title>xero</title><path d="M53,80H46.85c-.35-.4-.86-.28-1.29-.34A30,30,0,0,1,20.62,55.77a6.22,6.22,0,0,0-.55-2.36v-6.8c.41-.34.29-.85.36-1.28A30,30,0,1,1,55.81,79.42,10.1,10.1,0,0,0,53,80ZM46.67,50.64h0c1.5,0,3,0,4.49,0a1.69,1.69,0,0,0,1.76-2.33,6.64,6.64,0,0,0-7-5.08,6.72,6.72,0,0,0-1.71,13.06,6.63,6.63,0,0,0,7.36-2.14c.4-.52.68-1.07.09-1.57s-1.11-.24-1.51.33l-.19.23a4.83,4.83,0,0,1-8.15-1.53c-.27-.68-.28-1,.63-1C43.88,50.69,45.27,50.64,46.67,50.64Zm13.1-.74a6.72,6.72,0,1,0,6.73-6.7A6.69,6.69,0,0,0,59.77,49.9ZM33.11,51.28l.61.55L38,56.07c.46.47,1,.81,1.54.25s.25-1.07-.22-1.54c-1.44-1.43-2.85-2.9-4.32-4.3-.49-.47-.42-.72,0-1.15,1.43-1.39,2.82-2.82,4.24-4.23.49-.49.89-1,.25-1.61s-1.08-.18-1.54.29c-1.41,1.41-2.85,2.8-4.23,4.24-.44.46-.7.52-1.17,0-1.31-1.37-2.68-2.69-4-4-.51-.51-1.05-1.27-1.81-.48s0,1.25.48,1.75c1.29,1.29,2.54,2.63,3.9,3.86.69.63.57,1,0,1.54-1.39,1.3-2.69,2.68-4,4-.49.49-.91,1-.29,1.62s1.13.16,1.61-.32c1.38-1.4,2.78-2.78,4.17-4.17Zm21.74-1.36c0,1.76,0,3.52,0,5.28,0,.67.13,1.27.9,1.29s.95-.63.95-1.32c0-2.29,0-4.58,0-6.88,0-1.8.16-3.08,2.6-3.18a.84.84,0,0,0,.9-1,.92.92,0,0,0-1-.84,3.81,3.81,0,0,0-2,.48c-.23.14-.43.27-.66,0a.83.83,0,0,0-1.07-.27,1,1,0,0,0-.56,1.07C54.85,46.33,54.85,48.13,54.85,49.92Z" style="fill:#01b2d4"/><path d="M20.07,53.41a6.22,6.22,0,0,1,.55,2.36A30,30,0,0,0,45.56,79.64c.43.06.94-.06,1.29.34q-13,0-26,0c-.62,0-.77-.14-.77-.76C20.08,70.63,20.07,62,20.07,53.41Z" style="fill:#fdfefe"/><path d="M46.67,50.64c-1.4,0-2.79,0-4.19,0-.91,0-.9.3-.63,1A4.83,4.83,0,0,0,50,53.13l.19-.23c.4-.57.92-.84,1.51-.33s.31,1-.09,1.57a6.63,6.63,0,0,1-7.36,2.14,6.71,6.71,0,1,1,8.67-8,1.69,1.69,0,0,1-1.76,2.33c-1.5,0-3,0-4.49,0Zm-.25-1.84c1.33,0,2.66,0,4,0,.54,0,.72-.08.5-.67a4.85,4.85,0,0,0-9-.09c-.21.54-.16.78.5.76C43.76,48.78,45.09,48.8,46.42,48.8Z" style="fill:#f8fcfd"/><path d="M59.77,49.9a6.72,6.72,0,1,1,6.69,6.73A6.69,6.69,0,0,1,59.77,49.9Zm11.51,0a4.81,4.81,0,1,0-4.83,4.83A4.82,4.82,0,0,0,71.28,49.91Z" style="fill:#f8fcfd"/><path d="M33.11,51.28l-.61.55c-1.39,1.39-2.79,2.77-4.17,4.17-.48.48-1,.93-1.61.32s-.2-1.13.29-1.62c1.35-1.33,2.65-2.71,4-4,.6-.57.72-.91,0-1.54-1.36-1.23-2.61-2.57-3.9-3.86-.49-.5-1.19-1-.48-1.75s1.3,0,1.81.48c1.35,1.33,2.72,2.65,4,4,.47.5.73.44,1.17,0,1.38-1.44,2.82-2.83,4.23-4.24.46-.47,1-.84,1.54-.29s.24,1.12-.25,1.61c-1.42,1.41-2.81,2.84-4.24,4.23-.45.43-.52.68,0,1.15,1.47,1.4,2.88,2.87,4.32,4.3.47.47.8,1,.22,1.54s-1.08.22-1.54-.25l-4.24-4.24Z" style="fill:#f8fcfd"/><path d="M54.85,49.92c0-1.79,0-3.59,0-5.38a1,1,0,0,1,.56-1.07.83.83,0,0,1,1.07.27c.23.32.43.19.66,0a3.81,3.81,0,0,1,2-.48.92.92,0,0,1,1,.84.84.84,0,0,1-.9,1c-2.44.1-2.58,1.38-2.6,3.18,0,2.3,0,4.59,0,6.88,0,.69-.1,1.35-.95,1.32s-.91-.62-.9-1.29C54.86,53.44,54.85,51.68,54.85,49.92Z" style="fill:#f8fcfd"/><path d="M46.42,48.8c-1.33,0-2.66,0-4,0-.66,0-.71-.22-.5-.76a4.85,4.85,0,0,1,9,.09c.22.59,0,.68-.5.67C49.08,48.79,47.75,48.8,46.42,48.8Z" style="fill:#01b2d4"/><path d="M71.28,49.91a4.81,4.81,0,1,1-4.83-4.82A4.82,4.82,0,0,1,71.28,49.91Zm-4.81-1.67a1.67,1.67,0,0,0,0,3.34,1.67,1.67,0,1,0,0-3.34Z" style="fill:#01b2d4"/><path d="M66.47,48.24a1.67,1.67,0,1,1,0,3.34,1.67,1.67,0,0,1,0-3.34Z" style="fill:#f8fcfd"/></svg>